<?xml version="1.0" encoding="UTF-8" standalone="no"?>
<svg width="14px" height="14px" viewBox="0 0 14 14" version="1.1" xmlns="http://www.w3.org/2000/svg" xmlns:xlink="http://www.w3.org/1999/xlink">
    <!-- Generator: Sketch 3.7 (28169) - http://www.bohemiancoding.com/sketch -->
    <title>close</title>
    <desc>Created with Sketch.</desc>
    <defs></defs>
    <g id="Page-1" stroke="none" stroke-width="1" fill="none" fill-rule="evenodd" opacity="0.8">
        <g id="Overpaid-(Email-receipt-sent)" transform="translate(-552.000000, -106.000000)" fill="#FFFFFF">
            <path d="M564.833008,116.888672 L560.944336,113 L564.833008,109.111328 C565.370117,108.574219 565.370117,107.704102 564.833008,107.166992 C564.564453,106.898438 564.209961,106.758789 563.855469,106.758789 C563.511719,106.758789 563.157227,106.898438 562.888672,107.166992 L559,111.055664 L555.111328,107.166992 C554.842773,106.898438 554.488281,106.758789 554.133789,106.758789 C553.790039,106.758789 553.435547,106.898438 553.166992,107.166992 C552.629883,107.704102 552.629883,108.574219 553.166992,109.111328 L557.055664,113 L553.166992,116.888672 C552.629883,117.425781 552.629883,118.295898 553.166992,118.833008 C553.435547,119.101562 553.790039,119.241211 554.133789,119.241211 C554.488281,119.241211 554.842773,119.101562 555.111328,118.833008 L559,114.944336 L562.888672,118.833008 C563.157227,119.101562 563.511719,119.241211 563.855469,119.241211 C564.209961,119.241211 564.564453,119.101562 564.833008,118.833008 C565.370117,118.295898 565.370117,117.425781 564.833008,116.888672 L564.833008,116.888672 Z" id="close"></path>
        </g>
    </g>
</svg>